<mxfile host="app.diagrams.net" modified="2024-02-13T13:20:01.260Z" agent="Mozilla/5.0 (Windows NT 10.0; Win64; x64) AppleWebKit/537.36 (KHTML, like Gecko) Chrome/121.0.0.0 Safari/537.36" version="23.1.2" etag="t26rSVd6sikWEmEYlN2R" type="github">
  <diagram name="Seite-1" id="OLRj3Vxkb9MUBVvHDX5w">
    <mxGraphModel>
      <root>
        <mxCell id="0" />
        <mxCell id="1" parent="0" />
      </root>
    </mxGraphModel>
  </diagram>
</mxfile>
